<svg xmlns="http://www.w3.org/2000/svg" width="80" height="80" fill="none"><circle cx="40" cy="40" r="40" fill="#F3BA2F"></circle><path fill="#fff" d="m28.348 35.212 11.651-11.651 11.658 11.657 6.78-6.78L40 10 21.568 28.433l6.78 6.78zM10 40l6.78-6.78L23.56 40l-6.78 6.78L10 40zm18.348 4.788 11.65 11.652 11.658-11.657 6.784 6.776-.004.004L40 70 21.567 51.568l-.01-.01 6.79-6.77zm28.092-4.784 6.78-6.78 6.78 6.78-6.78 6.78-6.78-6.78z"></path><path fill="#fff" d="M46.876 39.996h.003L40 33.116l-5.084 5.085-.584.584-1.205 1.205-.01.01.01.01L40 46.883l6.88-6.88.004-.003-.007-.004z"></path></svg>