<svg xmlns="http://www.w3.org/2000/svg" width="80" height="80" fill="none"><circle cx="40" cy="40" r="40" fill="#00284C"></circle><path fill="#fff" d="M62.755 62.755a4.251 4.251 0 1 0-6.013-6.013 4.251 4.251 0 0 0 6.013 6.013zm-39.497 0a4.252 4.252 0 1 0-6.013-6.013 4.252 4.252 0 0 0 6.013 6.013zm0-39.497a4.252 4.252 0 1 0-6.013-6.013 4.252 4.252 0 0 0 6.013 6.013zm39.497 0a4.251 4.251 0 1 0-6.013-6.013 4.251 4.251 0 0 0 6.013 6.013z"></path><path fill="#fff" fill-rule="evenodd" d="M26.528 20.517c8.083-5.594 18.868-5.594 26.941 0l-6.171 6.172a15.206 15.206 0 0 0-14.599 0l-6.171-6.172zm32.95 6.01c5.595 8.084 5.595 18.868 0 26.941l-6.17-6.17a15.206 15.206 0 0 0 0-14.6l6.17-6.171zM53.47 59.478c-8.073 5.595-18.858 5.595-26.941 0l6.171-6.171a15.206 15.206 0 0 0 14.599 0l6.171 6.171zm-32.95-6.01c-5.595-8.073-5.595-18.858 0-26.941l6.17 6.171a15.206 15.206 0 0 0 0 14.6l-6.17 6.17z" clip-rule="evenodd"></path><path fill="#fff" d="M40.644 40.644a.911.911 0 1 0-1.289-1.288.911.911 0 0 0 1.289 1.288zM25.741 25.74a.911.911 0 1 0-1.288-1.288.911.911 0 0 0 1.288 1.289zm2.483 2.485a.91.91 0 1 0-1.288-1.289.91.91 0 0 0 1.288 1.289zm2.485 2.484a.91.91 0 1 0-1.288-1.289.91.91 0 0 0 1.288 1.288zm2.482 2.483a.91.91 0 1 0-1.288-1.288.91.91 0 0 0 1.288 1.288zm2.485 2.484a.91.91 0 1 0-1.288-1.288.91.91 0 0 0 1.288 1.288zm2.484 2.484a.911.911 0 1 0-1.288-1.288.911.911 0 0 0 1.288 1.288zm4.968 4.968a.911.911 0 1 0-1.289-1.288.911.911 0 0 0 1.289 1.288zm2.484 2.484a.911.911 0 1 0-1.288-1.288.911.911 0 0 0 1.288 1.288zm2.485 2.484a.911.911 0 1 0-1.289-1.289.911.911 0 0 0 1.289 1.289zm2.482 2.484a.91.91 0 1 0-1.288-1.288.91.91 0 0 0 1.288 1.288zm2.484 2.484a.911.911 0 1 0-1.288-1.289.911.911 0 0 0 1.288 1.289zm2.485 2.484a.911.911 0 1 0-1.289-1.289.911.911 0 0 0 1.289 1.289zM25.74 54.26a.911.911 0 1 0-1.287 1.287.911.911 0 0 0 1.288-1.288zm2.483-2.485a.911.911 0 1 0-1.288 1.289.911.911 0 0 0 1.288-1.289zm2.485-2.484a.911.911 0 1 0-1.289 1.289.911.911 0 0 0 1.289-1.289zm2.484-2.484a.91.91 0 1 0-1.288 1.289.91.91 0 0 0 1.288-1.288zm2.484-2.483a.911.911 0 1 0-1.288 1.288.911.911 0 0 0 1.288-1.288zm2.484-2.484a.911.911 0 1 0-1.289 1.289.911.911 0 0 0 1.289-1.29zm4.969-4.968a.911.911 0 1 0-1.289 1.288.911.911 0 0 0 1.289-1.288zm2.482-2.484a.911.911 0 1 0-1.288 1.288.911.911 0 0 0 1.288-1.288zm2.484-2.484a.911.911 0 1 0-1.288 1.288.911.911 0 0 0 1.288-1.288zm2.485-2.484a.911.911 0 1 0-1.289 1.289.911.911 0 0 0 1.289-1.289zm2.484-2.484a.911.911 0 1 0-1.288 1.289.911.911 0 0 0 1.288-1.289zm2.483-2.484a.911.911 0 1 0-1.288 1.289.911.911 0 0 0 1.288-1.289z"></path></svg>