<svg xmlns="http://www.w3.org/2000/svg" width="80" height="80" fill="none"><path fill="#fff" d="M64.688 13.688H15.26v44.954h49.427V13.688z"></path><path fill="#E84142" fill-rule="evenodd" d="M80 40c0 22.092-17.909 40-40 40S0 62.092 0 40C0 17.909 17.909 0 40 0s40 17.909 40 40zM28.665 55.918h-7.763c-1.631 0-2.437 0-2.928-.314a1.973 1.973 0 0 1-.894-1.543c-.03-.58.373-1.288 1.179-2.703l19.167-33.785c.816-1.435 1.229-2.152 1.75-2.417a1.977 1.977 0 0 1 1.788 0c.52.265.933.982 1.749 2.417l3.94 6.879.02.035c.881 1.539 1.328 2.32 1.523 3.139a5.837 5.837 0 0 1 0 2.731c-.197.826-.639 1.612-1.533 3.174L36.595 51.33l-.026.046c-.887 1.551-1.336 2.338-1.959 2.931a5.86 5.86 0 0 1-2.388 1.386c-.815.226-1.73.226-3.557.226zm19.604 0h11.123c1.641 0 2.467 0 2.958-.324.53-.344.865-.924.895-1.553.028-.56-.366-1.24-1.139-2.573l-.08-.139-5.572-9.531-.063-.108c-.783-1.324-1.178-1.992-1.686-2.25a1.956 1.956 0 0 0-1.779 0c-.51.265-.923.962-1.739 2.367l-5.552 9.532-.019.033c-.813 1.403-1.219 2.104-1.19 2.68.04.628.364 1.208.895 1.552.481.314 1.307.314 2.948.314z" clip-rule="evenodd"></path></svg>