<svg xmlns="http://www.w3.org/2000/svg" width="80" height="80" fill="none"><path fill="#000" d="M40 80c22.09 0 40-17.91 40-40S62.09 0 40 0 0 17.909 0 40s17.909 40 40 40z"></path><path fill="url(#a)" d="M24.685 51.026a1.609 1.609 0 0 1 1.19-.527l36.657.03a.806.806 0 0 1 .594 1.35l-7.806 8.595a1.608 1.608 0 0 1-1.19.526l-36.656-.03a.806.806 0 0 1-.594-1.349l7.805-8.595zm38.438-7.155a.806.806 0 0 1-.594 1.349l-36.655.03a1.607 1.607 0 0 1-1.191-.526l-7.804-8.6a.81.81 0 0 1 .155-1.217.814.814 0 0 1 .44-.132l36.655-.03a1.603 1.603 0 0 1 1.19.526l7.804 8.6zM24.685 19.526a1.603 1.603 0 0 1 1.19-.526l36.657.03a.806.806 0 0 1 .594 1.347l-7.806 8.595a1.609 1.609 0 0 1-1.19.526l-36.656-.03a.803.803 0 0 1-.793-.936.808.808 0 0 1 .199-.412l7.805-8.594z"></path><defs><linearGradient id="a" x1="18.086" x2="61.916" y1="61.915" y2="18.085" gradientUnits="userSpaceOnUse"><stop stop-color="#9945FF"></stop><stop offset=".2" stop-color="#7962E7"></stop><stop offset="1" stop-color="#00D18C"></stop></linearGradient></defs></svg>