<svg xmlns="http://www.w3.org/2000/svg" width="80" height="80" fill="none"><path fill="#2775CA" d="M40 80c22.167 0 40-17.833 40-40S62.167 0 40 0 0 17.833 0 40s17.833 40 40 40z"></path><path fill="#fff" d="M51 46.333c0-5.833-3.5-7.833-10.5-8.666-5-.667-6-2-6-4.334 0-2.333 1.667-3.833 5-3.833 3 0 4.667 1 5.5 3.5.167.5.667.833 1.167.833h2.666c.667 0 1.167-.5 1.167-1.166V32.5a8.326 8.326 0 0 0-7.5-6.833v-4c0-.667-.5-1.167-1.333-1.334h-2.5c-.667 0-1.167.5-1.334 1.334V25.5c-5 .667-8.166 4-8.166 8.167 0 5.5 3.333 7.666 10.333 8.5 4.667.833 6.167 1.833 6.167 4.5 0 2.666-2.334 4.5-5.5 4.5-4.334 0-5.834-1.834-6.334-4.334-.166-.666-.666-1-1.166-1h-2.834c-.666 0-1.166.5-1.166 1.167v.167c.666 4.166 3.333 7.166 8.833 8v4c0 .666.5 1.166 1.333 1.333h2.5c.667 0 1.167-.5 1.334-1.333v-4c5-.834 8.333-4.334 8.333-8.834z"></path><path fill="#fff" d="M31.5 63.833c-13-4.666-19.668-19.166-14.834-32 2.5-7 8-12.333 14.833-14.833.667-.333 1-.833 1-1.667V13c0-.667-.333-1.167-1-1.333-.166 0-.5 0-.666.166-15.834 5-24.5 21.834-19.5 37.667 3 9.333 10.166 16.5 19.5 19.5.666.333 1.333 0 1.5-.667.166-.166.166-.333.166-.666v-2.334c0-.5-.5-1.166-1-1.5zm17.666-52c-.667-.333-1.333 0-1.5.667-.167.167-.167.333-.167.667V15.5c0 .667.5 1.333 1 1.667 13 4.666 19.667 19.166 14.833 32-2.5 7-8 12.333-14.833 14.833-.666.333-1 .833-1 1.667V68c0 .667.334 1.167 1 1.333.167 0 .5 0 .667-.166 15.833-5 24.5-21.834 19.5-37.667-3-9.5-10.333-16.667-19.5-19.667z"></path></svg>