<svg xmlns="http://www.w3.org/2000/svg" width="80" height="80" fill="none"><circle cx="40" cy="40" r="40" fill="#50AF95"></circle><path fill="#fff" fill-rule="evenodd" d="M35.117 43.717c.273.02 1.682.104 4.825.104 2.5 0 4.275-.075 4.898-.104 9.662-.425 16.873-2.103 16.873-4.112 0-2.01-7.211-3.686-16.873-4.117v6.557c-.632.045-2.441.152-4.941.152-3 0-4.503-.125-4.773-.15v-6.554c-9.641.428-16.837 2.107-16.837 4.112s7.193 3.683 16.837 4.11l-.01.002zm0-8.902v-5.868H21.662V20h36.633v8.947H44.842v5.865C55.777 35.314 64 37.475 64 40.065c0 2.59-8.223 4.75-19.158 5.253V64.12H35.12V45.31C24.21 44.81 16 42.651 16 40.063s8.203-4.747 19.12-5.25l-.003.002z" clip-rule="evenodd"></path></svg>