<svg xmlns="http://www.w3.org/2000/svg" width="80" height="80" fill="none"><circle cx="40" cy="40" r="40" fill="#E6007A"></circle><path fill="#fff" d="M40.002 27.62c4.568 0 8.272-2.153 8.272-4.81 0-2.657-3.704-4.81-8.272-4.81s-8.272 2.153-8.272 4.81c0 2.657 3.704 4.81 8.272 4.81zm0 36.25c4.568 0 8.272-2.155 8.272-4.811 0-2.657-3.704-4.811-8.272-4.811s-8.272 2.154-8.272 4.81c0 2.657 3.704 4.811 8.272 4.811zM28.475 34.281c2.284-3.956 2.269-8.24-.034-9.57-2.302-1.33-6.02.8-8.304 4.756-2.284 3.956-2.27 8.24.033 9.57 2.302 1.33 6.02-.8 8.305-4.756zm31.389 18.122c2.284-3.956 2.27-8.24-.03-9.569-2.302-1.328-6.019.802-8.303 4.758-2.284 3.956-2.27 8.24.03 9.569 2.301 1.328 6.018-.802 8.303-4.758zm-31.42 4.757c2.302-1.33 2.317-5.614.033-9.57-2.285-3.956-6.003-6.086-8.305-4.756-2.303 1.329-2.317 5.614-.033 9.57 2.284 3.956 6.002 6.085 8.305 4.756zm31.391-18.123c2.301-1.329 2.315-5.613.03-9.569-2.284-3.956-6-6.086-8.301-4.758-2.301 1.329-2.315 5.613-.03 9.569 2.283 3.956 6 6.086 8.301 4.758z"></path></svg>