<svg xmlns="http://www.w3.org/2000/svg" width="80" height="80" fill="none"><circle cx="40" cy="40" r="40" fill="#0033AD"></circle><path fill="#fff" d="M29.152 40.01a3.239 3.239 0 0 0 3.045 3.418h.176a3.231 3.231 0 1 0-3.23-3.417l.01-.002zm-12.05-.82a1.044 1.044 0 1 0-.117 2.085 1.044 1.044 0 0 0 .117-2.085zm11.845-17.936a1.044 1.044 0 1 0-.954-1.858 1.044 1.044 0 0 0 .954 1.858zm3.279 5.718a1.613 1.613 0 1 0-1.453-2.88 1.613 1.613 0 0 0 1.453 2.88zM21.19 30.905a1.329 1.329 0 1 0 1.462-2.22 1.329 1.329 0 0 0-1.461 2.22zm1.967 7.697a1.614 1.614 0 1 0-.182 3.223 1.614 1.614 0 0 0 .182-3.223zm-1.789 10.851a1.329 1.329 0 1 0 1.198 2.373 1.329 1.329 0 0 0-1.198-2.373zm6.274-14.187a1.9 1.9 0 1 0 2.082-3.177 1.9 1.9 0 0 0-2.082 3.177zm19.906-8.421a1.616 1.616 0 1 0 1.766-2.707 1.616 1.616 0 0 0-1.766 2.707zm3.311-5.7a1.046 1.046 0 1 0 1.147-1.75 1.046 1.046 0 0 0-1.147 1.75zm-3.057 15.788a3.233 3.233 0 0 0-.371 6.455h.187a3.232 3.232 0 0 0 1.404-6.143 3.194 3.194 0 0 0-1.22-.312zm-14.514-1.891a3.22 3.22 0 0 0 2.889 1.778 3.233 3.233 0 0 0 1.691-5.987 3.222 3.222 0 0 0-1.695-.472 3.234 3.234 0 0 0-2.885 4.681zm25.34-4.141a1.33 1.33 0 1 0-1.198-2.373 1.33 1.33 0 0 0 1.198 2.373zm-8.195 1.029a1.901 1.901 0 1 0 1.71 3.396 1.901 1.901 0 0 0-1.71-3.395zM39.877 20.657a1.331 1.331 0 0 0 1.068-2.213 1.33 1.33 0 1 0-1.068 2.213zm-.014 8.369a1.9 1.9 0 1 0 .213-3.794 1.9 1.9 0 0 0-.213 3.794zM29.567 48.422a1.9 1.9 0 1 0-1.71-3.393 1.9 1.9 0 0 0 1.71 3.393zM41.09 31.798a3.232 3.232 0 1 0 5.405 3.543 3.232 3.232 0 0 0-5.406-3.543zm5.619 13.514A3.23 3.23 0 1 0 43.823 50a3.267 3.267 0 0 0 1.455-.353 3.233 3.233 0 0 0 1.43-4.334zm5.647-.226a1.9 1.9 0 1 0-2.085 3.176 1.9 1.9 0 0 0 2.085-3.176zm6.187-4.854a1.614 1.614 0 1 0-3.223-.182 1.614 1.614 0 0 0 3.223.182zm4.472-1.15a1.045 1.045 0 1 0-.12 2.087 1.045 1.045 0 0 0 .12-2.087zm-4.211 10.366a1.33 1.33 0 1 0-1.457 2.224 1.33 1.33 0 0 0 1.457-2.224zm-29.665 9.76a1.045 1.045 0 1 0-1.148 1.748 1.045 1.045 0 0 0 1.148-1.748zm21.909-.109a1.046 1.046 0 1 0 .943 1.868 1.046 1.046 0 0 0-.943-1.868zM38.907 48.55a3.231 3.231 0 1 0-5.405-3.543 3.231 3.231 0 0 0 5.405 3.542zm-6.458 4.96a1.613 1.613 0 1 0-1.767 2.7 1.613 1.613 0 0 0 1.767-2.7zm7.535 6.185a1.33 1.33 0 1 0-.15 2.657 1.33 1.33 0 0 0 .15-2.657zm.014-8.366a1.9 1.9 0 1 0-.23 3.793 1.9 1.9 0 0 0 .23-3.793zm7.772 2.051a1.616 1.616 0 1 0 1.462 2.883 1.616 1.616 0 0 0-1.463-2.882z"></path></svg>