<svg xmlns="http://www.w3.org/2000/svg" width="80" height="80" fill="none"><path fill="#F7931A" d="M78.801 49.68c-5.339 21.427-27.047 34.468-48.48 29.12C8.886 73.455-4.15 51.757 1.198 30.328 6.547 8.897 28.245-4.15 49.673 1.199 71.102 6.547 84.15 28.246 78.802 49.68z"></path><path fill="#fff" d="M57.64 34.3c.796-5.322-3.257-8.184-8.8-10.092l1.8-7.21-4.39-1.094-1.754 7.02a172.85 172.85 0 0 0-3.515-.827l1.76-7.067-4.386-1.094-1.795 7.208-8.853-2.193-1.168 4.689s3.257.746 3.188.792c1.777.444 2.1 1.62 2.046 2.553l-4.926 19.753c-.218.54-.769 1.35-2.011 1.04.044.064-3.19-.8-3.19-.8l-2.18 5.031 8.84 2.232-1.817 7.295 4.384 1.093 1.8-7.215c1.2.324 2.36.624 3.497.907l-1.793 7.182 4.39 1.094 1.817-7.28c7.485 1.415 13.114.844 15.48-5.92 1.91-5.451-.093-8.595-4.032-10.646 2.868-.664 5.028-2.55 5.605-6.447l.003-.003zM47.608 48.366c-1.36 5.45-10.534 2.505-13.511 1.765l2.41-9.663c2.976.743 12.516 2.213 11.103 7.897h-.002zm1.362-14.141c-1.238 4.96-8.877 2.44-11.356 1.821l2.182-8.765c2.48.619 10.461 1.772 9.17 6.943"></path></svg>